# xmcd
#
# Track frame offsets:
#	150
#	9643
#	25988
#	49423
#	54094
#	84807
#	136015
#	160718
#	218727
#	246761
#	263774
#	293649
#
# Disc length: 4635 seconds
#
# Revision: 11
# Processed by: cddbd v1.5.2PL0 Copyright (c) Steve Scherf et al.
# Submitted via: Jack! The Knife 19 Blackthorn
#
DISCID=9312190c
DTITLE=Dream Theater - Scenes From A Memory
DYEAR=1999
DGENRE=Metal
TTITLE0=Regression
TTITLE1=Overture 1928
TTITLE2=Strange Deja Vu
TTITLE3=Through My Words
TTITLE4=Fatal Tragedy
TTITLE5=Beyond This Life
TTITLE6=Through Her Eyes
TTITLE7=Home
TTITLE8=The Dance Of Eternity
TTITLE9=One Last Time
TTITLE10=The Spirit Carries On
TTITLE11=Finally Free
EXTD=Mike Portnoy and John Petrucci
EXTT0=John Petrucci
EXTT1=Petrucci, LaBrie, Myung, Rudess, Portnoy
EXTT2=Petrucci, LaBrie, Myung, Rudess, Portnoy
EXTT3=John Petrucci
EXTT4=Petrucci, LaBrie, Myung, Rudess, Portnoy
EXTT5=Petrucci, LaBrie, Myung, Rudess, Portnoy
EXTT6=Petrucci, LaBrie, Myung, Rudess, Portnoy
EXTT7=Petrucci, LaBrie, Myung, Rudess, Portnoy
EXTT8=Petrucci, LaBrie, Myung, Rudess, Portnoy
EXTT9=Petrucci, LaBrie, Myung, Rudess, Portnoy
EXTT10=Petrucci, LaBrie, Myung, Rudess, Portnoy
EXTT11=Petrucci, LaBrie, Myung, Rudess, Portnoy
PLAYORDER=
